{
	"asset":{
		"generator":"Khronos glTF Blender I/O v4.4.56",
		"version":"2.0"
	},
	"scene":0,
	"scenes":[
		{
			"name":"Scene",
			"nodes":[
				3,
				4,
				5,
				6,
				7,
				8,
				9,
				10,
				31
			]
		}
	],
	"nodes":[
		{
			"name":"MikeAlger"
		},
		{
			"children":[
				0
			],
			"name":"RootNode"
		},
		{
			"children":[
				1
			],
			"name":"de827ccd616e49f2b331da7f550b96f2.fbx",
			"rotation":[
				0.70710688829422,
				0,
				0,
				0.7071066498756409
			]
		},
		{
			"children":[
				2
			],
			"name":"Sketchfab_model",
			"rotation":[
				-0.70710688829422,
				0,
				0,
				0.7071066498756409
			],
			"scale":[
				0.009999999776482582,
				0.010000000707805157,
				0.010000000707805157
			]
		},
		{
			"name":"Object_6"
		},
		{
			"name":"Object_8"
		},
		{
			"name":"Object_10",
			"translation":[
				-0.03504323586821556,
				-0.7154170870780945,
				-0.5909697413444519
			]
		},
		{
			"name":"Object_12",
			"translation":[
				-0.03504323586821556,
				-0.7154170870780945,
				-0.5909697413444519
			]
		},
		{
			"name":"Object_14",
			"translation":[
				-0.03504323586821556,
				-0.7154170870780945,
				-0.5909697413444519
			]
		},
		{
			"name":"Object_16",
			"translation":[
				-0.03504323586821556,
				-0.7154170870780945,
				-0.5909697413444519
			]
		},
		{
			"name":"Object_18",
			"translation":[
				-0.03504323586821556,
				-0.7154170870780945,
				-0.5909697413444519
			]
		},
		{
			"name":"Bone.002",
			"rotation":[
				0.01740388385951519,
				0.0014321584021672606,
				0.020907029509544373,
				0.9996289014816284
			],
			"translation":[
				4.118192009627819e-09,
				0.8680349588394165,
				8.207280188798904e-09
			]
		},
		{
			"name":"Bone.006",
			"rotation":[
				-0.2429576814174652,
				3.601575571110516e-08,
				0.025442061945796013,
				0.969703197479248
			],
			"scale":[
				0.9999998807907104,
				1,
				0.9999999403953552
			],
			"translation":[
				-1.1222437024116516e-07,
				0.7884552478790283,
				-3.725290298461914e-09
			]
		},
		{
			"children":[
				12
			],
			"name":"Bone.005",
			"rotation":[
				-0.0013566047418862581,
				3.8192052187469017e-08,
				0.046060897409915924,
				0.9989377856254578
			],
			"scale":[
				1.0000001192092896,
				1.0000001192092896,
				1
			],
			"translation":[
				3.9208680391311646e-07,
				0.7271257042884827,
				-7.264316082000732e-08
			]
		},
		{
			"children":[
				13
			],
			"name":"Bone.004",
			"rotation":[
				0.09498096257448196,
				-0.0023296200670301914,
				-0.026200272142887115,
				0.9951315522193909
			],
			"scale":[
				0.9999999403953552,
				1,
				1
			],
			"translation":[
				-5.178153514862061e-07,
				0.46686527132987976,
				4.470348358154297e-08
			]
		},
		{
			"children":[
				14
			],
			"name":"Bone.003",
			"rotation":[
				-0.10652266442775726,
				-0.001141243614256382,
				-0.7182367444038391,
				0.687595546245575
			],
			"translation":[
				4.118192009627819e-09,
				0.8680349588394165,
				8.207280188798904e-09
			]
		},
		{
			"name":"Bone.013",
			"rotation":[
				0.001344693941064179,
				-3.635923206957159e-08,
				0.010864055715501308,
				0.9999400973320007
			],
			"scale":[
				1,
				1,
				0.9999999403953552
			],
			"translation":[
				6.165355443954468e-07,
				0.9621037244796753,
				0
			]
		},
		{
			"children":[
				16
			],
			"name":"Bone.012",
			"rotation":[
				-0.08689086884260178,
				-5.9593091350507166e-08,
				-0.0873628780245781,
				0.9923798441886902
			],
			"scale":[
				0.9999999403953552,
				1.0000001192092896,
				0.9999998807907104
			],
			"translation":[
				-1.1408701539039612e-07,
				0.6875730156898499,
				-2.2351741790771484e-08
			]
		},
		{
			"children":[
				17
			],
			"name":"Bone.011",
			"rotation":[
				0.006620112806558609,
				1.6616711562278397e-08,
				0.03895507752895355,
				0.9992190599441528
			],
			"scale":[
				1,
				0.9999999403953552,
				0.9999999403953552
			],
			"translation":[
				7.869675755500793e-08,
				0.49850451946258545,
				-1.1175870895385742e-08
			]
		},
		{
			"children":[
				18
			],
			"name":"Bone.010",
			"rotation":[
				-0.03549576550722122,
				0.0002863802947103977,
				0.7436458468437195,
				0.6676307320594788
			],
			"scale":[
				1.0000001192092896,
				1,
				1
			],
			"translation":[
				4.118192009627819e-09,
				0.8680349588394165,
				8.207280188798904e-09
			]
		},
		{
			"children":[
				11,
				15,
				19
			],
			"name":"Bone.001",
			"rotation":[
				-0.035478316247463226,
				-0.00019248321768827736,
				-0.01389310508966446,
				0.9992738962173462
			],
			"scale":[
				1,
				0.9999999403953552,
				1
			],
			"translation":[
				2.3523170966655016e-08,
				0.8901283144950867,
				-1.83936208486557e-08
			]
		},
		{
			"children":[
				20
			],
			"name":"Bone",
			"rotation":[
				0.01786033809185028,
				0.00172345747705549,
				-0.0030632982961833477,
				0.9998343586921692
			],
			"scale":[
				0.9999999403953552,
				0.9999999403953552,
				1
			],
			"translation":[
				0.00226651132106781,
				2.749267816543579,
				0.017807360738515854
			]
		},
		{
			"name":"Bone.009",
			"rotation":[
				0.001813056180253625,
				0.006991611793637276,
				0.005184468813240528,
				0.9999604821205139
			],
			"translation":[
				-9.313225746154785e-09,
				1.1683173179626465,
				1.30385160446167e-08
			]
		},
		{
			"children":[
				22
			],
			"name":"Bone.008",
			"rotation":[
				-0.4607083201408386,
				0.11163023859262466,
				-0.02468179538846016,
				0.8801575899124146
			],
			"scale":[
				1,
				0.9999998807907104,
				0.9999998807907104
			],
			"translation":[
				2.7939677238464355e-09,
				0.34853067994117737,
				1.0745134204626083e-07
			]
		},
		{
			"children":[
				23
			],
			"name":"Bone.007",
			"rotation":[
				-0.5843909382820129,
				-0.34759292006492615,
				-0.6706323623657227,
				0.2965109050273895
			],
			"scale":[
				0.9999999403953552,
				0.9999998807907104,
				0.9999999403953552
			],
			"translation":[
				0.007531672716140747,
				2.752584457397461,
				0.017524760216474533
			]
		},
		{
			"name":"Bone.017",
			"rotation":[
				0.08988795429468155,
				0.045659761875867844,
				-0.6614490747451782,
				0.7431827187538147
			],
			"scale":[
				0.9999999403953552,
				1,
				0.9999999403953552
			],
			"translation":[
				-1.4901161193847656e-08,
				1.2434093952178955,
				2.7008354663848877e-08
			]
		},
		{
			"children":[
				25
			],
			"name":"Bone.016",
			"rotation":[
				-0.006704895291477442,
				0.0038135924842208624,
				-0.0601813942193985,
				0.9981576800346375
			],
			"scale":[
				0.9999999403953552,
				0.9999998807907104,
				0.9999999403953552
			],
			"translation":[
				-1.1641532182693481e-09,
				1.1559722423553467,
				-8.212646207539365e-08
			]
		},
		{
			"children":[
				26
			],
			"name":"Bone.015",
			"rotation":[
				-0.4545907974243164,
				-7.335589202739357e-08,
				0.0007167425355874002,
				0.890700101852417
			],
			"scale":[
				1,
				1.0000001192092896,
				1
			],
			"translation":[
				-7.973142146511236e-09,
				0.3818903863430023,
				-2.444721758365631e-09
			]
		},
		{
			"children":[
				27
			],
			"name":"Bone.014",
			"rotation":[
				-0.6459700465202332,
				0.3129851818084717,
				0.6132449507713318,
				0.329687237739563
			],
			"scale":[
				0.9999999403953552,
				1,
				0.9999998807907104
			],
			"translation":[
				0.00226651132106781,
				2.749267816543579,
				0.017807360738515854
			]
		},
		{
			"name":"neutral_bone",
			"rotation":[
				-0.7071067690849304,
				0,
				0,
				0.7071067690849304
			]
		},
		{
			"mesh":0,
			"name":"Object_13",
			"skin":0
		},
		{
			"children":[
				30,
				21,
				24,
				28,
				29
			],
			"name":"Armature",
			"translation":[
				-0.23511691391468048,
				1.008721113204956,
				-0.04385671019554138
			]
		}
	],
	"materials":[
		{
			"doubleSided":true,
			"name":"MikeAlger_Material.3",
			"pbrMetallicRoughness":{
				"baseColorTexture":{
					"index":0
				},
				"metallicFactor":0,
				"roughnessFactor":0.8492758870124817
			}
		},
		{
			"doubleSided":true,
			"name":"MikeAlger_Material",
			"pbrMetallicRoughness":{
				"baseColorTexture":{
					"index":1
				},
				"metallicFactor":0.009999999776482582,
				"roughnessFactor":0.4529344439506531
			}
		},
		{
			"doubleSided":true,
			"name":"MikeAlger_Material.1",
			"pbrMetallicRoughness":{
				"baseColorTexture":{
					"index":2
				},
				"metallicFactor":0,
				"roughnessFactor":0.9285442233085632
			}
		},
		{
			"doubleSided":true,
			"name":"MikeAlger_Material.2",
			"pbrMetallicRoughness":{
				"baseColorTexture":{
					"index":3
				},
				"metallicFactor":0,
				"roughnessFactor":0.9468368887901306
			}
		},
		{
			"doubleSided":true,
			"name":"MikeAlger_Material.4",
			"pbrMetallicRoughness":{
				"baseColorTexture":{
					"index":4
				},
				"metallicFactor":0.5809832215309143,
				"roughnessFactor":0.715129554271698
			}
		},
		{
			"doubleSided":true,
			"name":"MikeAlger_Material.5",
			"pbrMetallicRoughness":{
				"baseColorTexture":{
					"index":5
				},
				"metallicFactor":0,
				"roughnessFactor":0.8614710569381714
			}
		},
		{
			"doubleSided":true,
			"name":"MikeAlger_Material.6",
			"pbrMetallicRoughness":{
				"baseColorTexture":{
					"index":6
				},
				"metallicFactor":0.03830030560493469,
				"roughnessFactor":0.3736661672592163
			}
		}
	],
	"meshes":[
		{
			"name":"Pants_MikeAlger_Material.3_0",
			"primitives":[
				{
					"attributes":{
						"POSITION":0,
						"NORMAL":1,
						"TEXCOORD_0":2,
						"JOINTS_0":3,
						"WEIGHTS_0":4
					},
					"indices":5,
					"material":0
				},
				{
					"attributes":{
						"POSITION":6,
						"NORMAL":7,
						"TEXCOORD_0":8,
						"JOINTS_0":9,
						"WEIGHTS_0":10
					},
					"indices":11,
					"material":1
				},
				{
					"attributes":{
						"POSITION":12,
						"NORMAL":13,
						"TEXCOORD_0":14,
						"JOINTS_0":15,
						"WEIGHTS_0":16
					},
					"indices":17,
					"material":2
				},
				{
					"attributes":{
						"POSITION":18,
						"NORMAL":19,
						"TEXCOORD_0":20,
						"JOINTS_0":21,
						"WEIGHTS_0":22
					},
					"indices":23,
					"material":3
				},
				{
					"attributes":{
						"POSITION":24,
						"NORMAL":25,
						"TEXCOORD_0":26,
						"JOINTS_0":27,
						"WEIGHTS_0":28
					},
					"indices":29,
					"material":4
				},
				{
					"attributes":{
						"POSITION":30,
						"NORMAL":31,
						"TEXCOORD_0":32,
						"JOINTS_0":33,
						"WEIGHTS_0":34
					},
					"indices":35,
					"material":5
				},
				{
					"attributes":{
						"POSITION":36,
						"NORMAL":37,
						"TEXCOORD_0":38,
						"JOINTS_0":39,
						"WEIGHTS_0":40
					},
					"indices":41,
					"material":6
				}
			]
		}
	],
	"textures":[
		{
			"sampler":0,
			"source":0
		},
		{
			"sampler":0,
			"source":0
		},
		{
			"sampler":0,
			"source":0
		},
		{
			"sampler":0,
			"source":0
		},
		{
			"sampler":0,
			"source":0
		},
		{
			"sampler":0,
			"source":0
		},
		{
			"sampler":0,
			"source":0
		}
	],
	"images":[
		{
			"mimeType":"image/jpeg",
			"name":"MikeAlger_Material_baseColor",
			"uri":"MikeAlger_Material_baseColor.jpg"
		}
	],
	"skins":[
		{
			"inverseBindMatrices":42,
			"joints":[
				21,
				20,
				11,
				15,
				14,
				13,
				12,
				19,
				18,
				17,
				16,
				24,
				23,
				22,
				28,
				27,
				26,
				25,
				29
			],
			"name":"Armature"
		}
	],
	"accessors":[
		{
			"bufferView":0,
			"componentType":5126,
			"count":7879,
			"max":[
				0.32107630372047424,
				4.004406929016113,
				0.3887997269630432
			],
			"min":[
				-0.8298853039741516,
				1.1211998462677002,
				-0.42021363973617554
			],
			"type":"VEC3"
		},
		{
			"bufferView":1,
			"componentType":5126,
			"count":7879,
			"type":"VEC3"
		},
		{
			"bufferView":2,
			"componentType":5126,
			"count":7879,
			"type":"VEC2"
		},
		{
			"bufferView":3,
			"componentType":5121,
			"count":7879,
			"type":"VEC4"
		},
		{
			"bufferView":4,
			"componentType":5126,
			"count":7879,
			"type":"VEC4"
		},
		{
			"bufferView":5,
			"componentType":5123,
			"count":43230,
			"type":"SCALAR"
		},
		{
			"bufferView":6,
			"componentType":5126,
			"count":10835,
			"max":[
				2.4089879989624023,
				6.458505153656006,
				0.4026881158351898
			],
			"min":[
				-2.8716847896575928,
				5.174343109130859,
				-0.36209431290626526
			],
			"type":"VEC3"
		},
		{
			"bufferView":7,
			"componentType":5126,
			"count":10835,
			"type":"VEC3"
		},
		{
			"bufferView":8,
			"componentType":5126,
			"count":10835,
			"type":"VEC2"
		},
		{
			"bufferView":9,
			"componentType":5121,
			"count":10835,
			"type":"VEC4"
		},
		{
			"bufferView":10,
			"componentType":5126,
			"count":10835,
			"type":"VEC4"
		},
		{
			"bufferView":11,
			"componentType":5123,
			"count":58740,
			"type":"SCALAR"
		},
		{
			"bufferView":12,
			"componentType":5126,
			"count":176,
			"max":[
				1.8827325105667114,
				5.437427997589111,
				0.011634559370577335
			],
			"min":[
				1.8166049718856812,
				5.281839847564697,
				-0.16891597211360931
			],
			"type":"VEC3"
		},
		{
			"bufferView":13,
			"componentType":5126,
			"count":176,
			"type":"VEC3"
		},
		{
			"bufferView":14,
			"componentType":5126,
			"count":176,
			"type":"VEC2"
		},
		{
			"bufferView":15,
			"componentType":5121,
			"count":176,
			"type":"VEC4"
		},
		{
			"bufferView":16,
			"componentType":5126,
			"count":176,
			"type":"VEC4"
		},
		{
			"bufferView":17,
			"componentType":5123,
			"count":576,
			"type":"SCALAR"
		},
		{
			"bufferView":18,
			"componentType":5126,
			"count":8654,
			"max":[
				1.4178351163864136,
				5.727775573730469,
				0.4402323067188263
			],
			"min":[
				-1.8191649913787842,
				3.6787543296813965,
				-0.6561558842658997
			],
			"type":"VEC3"
		},
		{
			"bufferView":19,
			"componentType":5126,
			"count":8654,
			"type":"VEC3"
		},
		{
			"bufferView":20,
			"componentType":5126,
			"count":8654,
			"type":"VEC2"
		},
		{
			"bufferView":21,
			"componentType":5121,
			"count":8654,
			"type":"VEC4"
		},
		{
			"bufferView":22,
			"componentType":5126,
			"count":8654,
			"type":"VEC4"
		},
		{
			"bufferView":23,
			"componentType":5123,
			"count":45324,
			"type":"SCALAR"
		},
		{
			"bufferView":24,
			"componentType":5126,
			"count":551,
			"max":[
				0.05678509175777435,
				6.476391792297363,
				0.30894169211387634
			],
			"min":[
				-0.4526396095752716,
				5.8576579093933105,
				-0.3133624494075775
			],
			"type":"VEC3"
		},
		{
			"bufferView":25,
			"componentType":5126,
			"count":551,
			"type":"VEC3"
		},
		{
			"bufferView":26,
			"componentType":5126,
			"count":551,
			"type":"VEC2"
		},
		{
			"bufferView":27,
			"componentType":5121,
			"count":551,
			"type":"VEC4"
		},
		{
			"bufferView":28,
			"componentType":5126,
			"count":551,
			"type":"VEC4"
		},
		{
			"bufferView":29,
			"componentType":5123,
			"count":2733,
			"type":"SCALAR"
		},
		{
			"bufferView":30,
			"componentType":5126,
			"count":937,
			"max":[
				0.15928012132644653,
				5.682579517364502,
				0.43159300088882446
			],
			"min":[
				-0.6484295725822449,
				3.84649920463562,
				-0.24707503616809845
			],
			"type":"VEC3"
		},
		{
			"bufferView":31,
			"componentType":5126,
			"count":937,
			"type":"VEC3"
		},
		{
			"bufferView":32,
			"componentType":5126,
			"count":937,
			"type":"VEC2"
		},
		{
			"bufferView":33,
			"componentType":5121,
			"count":937,
			"type":"VEC4"
		},
		{
			"bufferView":34,
			"componentType":5126,
			"count":937,
			"type":"VEC4"
		},
		{
			"bufferView":35,
			"componentType":5123,
			"count":4596,
			"type":"SCALAR"
		},
		{
			"bufferView":36,
			"componentType":5126,
			"count":1924,
			"max":[
				0.3962726891040802,
				1.3045380115509033,
				0.5120195150375366
			],
			"min":[
				-0.8068196177482605,
				1.0266033411026,
				-0.33511143922805786
			],
			"type":"VEC3"
		},
		{
			"bufferView":37,
			"componentType":5126,
			"count":1924,
			"type":"VEC3"
		},
		{
			"bufferView":38,
			"componentType":5126,
			"count":1924,
			"type":"VEC2"
		},
		{
			"bufferView":39,
			"componentType":5121,
			"count":1924,
			"type":"VEC4"
		},
		{
			"bufferView":40,
			"componentType":5126,
			"count":1924,
			"type":"VEC4"
		},
		{
			"bufferView":41,
			"componentType":5123,
			"count":8850,
			"type":"SCALAR"
		},
		{
			"bufferView":42,
			"componentType":5126,
			"count":19,
			"type":"MAT4"
		}
	],
	"bufferViews":[
		{
			"buffer":0,
			"byteLength":94548,
			"byteOffset":0,
			"target":34962
		},
		{
			"buffer":0,
			"byteLength":94548,
			"byteOffset":94548,
			"target":34962
		},
		{
			"buffer":0,
			"byteLength":63032,
			"byteOffset":189096,
			"target":34962
		},
		{
			"buffer":0,
			"byteLength":31516,
			"byteOffset":252128,
			"target":34962
		},
		{
			"buffer":0,
			"byteLength":126064,
			"byteOffset":283644,
			"target":34962
		},
		{
			"buffer":0,
			"byteLength":86460,
			"byteOffset":409708,
			"target":34963
		},
		{
			"buffer":0,
			"byteLength":130020,
			"byteOffset":496168,
			"target":34962
		},
		{
			"buffer":0,
			"byteLength":130020,
			"byteOffset":626188,
			"target":34962
		},
		{
			"buffer":0,
			"byteLength":86680,
			"byteOffset":756208,
			"target":34962
		},
		{
			"buffer":0,
			"byteLength":43340,
			"byteOffset":842888,
			"target":34962
		},
		{
			"buffer":0,
			"byteLength":173360,
			"byteOffset":886228,
			"target":34962
		},
		{
			"buffer":0,
			"byteLength":117480,
			"byteOffset":1059588,
			"target":34963
		},
		{
			"buffer":0,
			"byteLength":2112,
			"byteOffset":1177068,
			"target":34962
		},
		{
			"buffer":0,
			"byteLength":2112,
			"byteOffset":1179180,
			"target":34962
		},
		{
			"buffer":0,
			"byteLength":1408,
			"byteOffset":1181292,
			"target":34962
		},
		{
			"buffer":0,
			"byteLength":704,
			"byteOffset":1182700,
			"target":34962
		},
		{
			"buffer":0,
			"byteLength":2816,
			"byteOffset":1183404,
			"target":34962
		},
		{
			"buffer":0,
			"byteLength":1152,
			"byteOffset":1186220,
			"target":34963
		},
		{
			"buffer":0,
			"byteLength":103848,
			"byteOffset":1187372,
			"target":34962
		},
		{
			"buffer":0,
			"byteLength":103848,
			"byteOffset":1291220,
			"target":34962
		},
		{
			"buffer":0,
			"byteLength":69232,
			"byteOffset":1395068,
			"target":34962
		},
		{
			"buffer":0,
			"byteLength":34616,
			"byteOffset":1464300,
			"target":34962
		},
		{
			"buffer":0,
			"byteLength":138464,
			"byteOffset":1498916,
			"target":34962
		},
		{
			"buffer":0,
			"byteLength":90648,
			"byteOffset":1637380,
			"target":34963
		},
		{
			"buffer":0,
			"byteLength":6612,
			"byteOffset":1728028,
			"target":34962
		},
		{
			"buffer":0,
			"byteLength":6612,
			"byteOffset":1734640,
			"target":34962
		},
		{
			"buffer":0,
			"byteLength":4408,
			"byteOffset":1741252,
			"target":34962
		},
		{
			"buffer":0,
			"byteLength":2204,
			"byteOffset":1745660,
			"target":34962
		},
		{
			"buffer":0,
			"byteLength":8816,
			"byteOffset":1747864,
			"target":34962
		},
		{
			"buffer":0,
			"byteLength":5466,
			"byteOffset":1756680,
			"target":34963
		},
		{
			"buffer":0,
			"byteLength":11244,
			"byteOffset":1762148,
			"target":34962
		},
		{
			"buffer":0,
			"byteLength":11244,
			"byteOffset":1773392,
			"target":34962
		},
		{
			"buffer":0,
			"byteLength":7496,
			"byteOffset":1784636,
			"target":34962
		},
		{
			"buffer":0,
			"byteLength":3748,
			"byteOffset":1792132,
			"target":34962
		},
		{
			"buffer":0,
			"byteLength":14992,
			"byteOffset":1795880,
			"target":34962
		},
		{
			"buffer":0,
			"byteLength":9192,
			"byteOffset":1810872,
			"target":34963
		},
		{
			"buffer":0,
			"byteLength":23088,
			"byteOffset":1820064,
			"target":34962
		},
		{
			"buffer":0,
			"byteLength":23088,
			"byteOffset":1843152,
			"target":34962
		},
		{
			"buffer":0,
			"byteLength":15392,
			"byteOffset":1866240,
			"target":34962
		},
		{
			"buffer":0,
			"byteLength":7696,
			"byteOffset":1881632,
			"target":34962
		},
		{
			"buffer":0,
			"byteLength":30784,
			"byteOffset":1889328,
			"target":34962
		},
		{
			"buffer":0,
			"byteLength":17700,
			"byteOffset":1920112,
			"target":34963
		},
		{
			"buffer":0,
			"byteLength":1216,
			"byteOffset":1937812
		}
	],
	"samplers":[
		{
			"magFilter":9729,
			"minFilter":9987
		}
	],
	"buffers":[
		{
			"byteLength":1939028,
			"uri":"scene.bin"
		}
	]
}
